<svg width="92" height="30" viewBox="0 0 92 30" fill="none" xmlns="http://www.w3.org/2000/svg">
<path d="M19.08 25.96C19.1333 26.0933 19.16 26.2933 19.16 26.56C19.16 26.8 19.16 27 19.16 27.16C19.16 27.3733 19.12 27.5733 19.04 27.76C18.96 27.9467 18.8533 28.12 18.72 28.28C18.48 28.6 18.1333 28.84 17.68 29C17.04 29.2133 16.44 29.32 15.88 29.32C15.5867 29.3467 15.28 29.36 14.96 29.36C14.64 29.36 14.32 29.3867 14 29.44H13.84C11.7867 29.4667 9.66667 29.4667 7.48 29.44C6.94667 29.4133 6.34667 29.4133 5.68 29.44C5.01333 29.4933 4.36 29.48 3.72 29.4C3.08 29.3467 2.49333 29.2 1.96 28.96C1.45333 28.6933 1.09333 28.28 0.88 27.72C0.826667 27.5867 0.786667 27.4667 0.76 27.36C0.733333 27.2267 0.72 27.0933 0.72 26.96C0.613333 26.0533 0.573333 25.16 0.6 24.28C0.626667 23.4 0.64 22.5333 0.64 21.68L0.72 15.88V10.52C0.72 9.56 0.72 8.70667 0.72 7.96C0.746667 7.21333 0.773333 6.38667 0.8 5.48V5.28C0.826667 5.01333 0.84 4.74667 0.84 4.48C0.866667 4.21333 0.88 3.94667 0.88 3.68C0.933333 3.06667 1.08 2.54667 1.32 2.12C1.48 1.72 1.76 1.4 2.16 1.16C2.50667 0.919998 2.92 0.799998 3.4 0.799998C3.58667 0.799998 3.76 0.813331 3.92 0.839998C4.10667 0.839998 4.28 0.853332 4.44 0.88C4.6 0.906666 4.74667 0.959999 4.88 1.04C5.04 1.12 5.2 1.22667 5.36 1.36C5.52 1.54667 5.66667 1.77333 5.8 2.04C5.90667 2.33333 5.97333 2.62667 6 2.92C6.02667 3.10667 6.05333 3.28 6.08 3.44C6.10667 3.6 6.12 3.76 6.12 3.92C6.06667 4.08 6.04 4.24 6.04 4.4C6.04 4.56 6.04 4.70667 6.04 4.84V5.56L5.88 24.4L13.8 24.48H15.68C15.84 24.48 16.0133 24.4933 16.2 24.52C16.3867 24.52 16.5733 24.5333 16.76 24.56C16.9733 24.5867 17.16 24.6133 17.32 24.64C17.48 24.6667 17.64 24.7067 17.8 24.76C18.0933 24.84 18.3333 24.9733 18.52 25.16C18.8133 25.4267 19 25.6933 19.08 25.96ZM26.6253 1.64C28.412 0.973332 30.0253 0.679998 31.4653 0.759999C32.932 0.839999 34.2386 1.21333 35.3853 1.88C36.532 2.52 37.5053 3.38667 38.3053 4.48C39.132 5.57333 39.7986 6.8 40.3053 8.16C40.7053 9.17333 41.012 10.24 41.2253 11.36C41.4386 12.48 41.5586 13.6 41.5853 14.72C41.6386 15.8133 41.5986 16.8933 41.4653 17.96C41.3586 19.0267 41.172 20.0133 40.9053 20.92C40.7453 21.5333 40.5586 22.0933 40.3453 22.6C40.132 23.1067 39.8786 23.6133 39.5853 24.12C38.9186 25.2667 38.052 26.2 36.9853 26.92C35.9453 27.64 34.7986 28.1467 33.5453 28.44C32.692 28.6533 31.812 28.76 30.9053 28.76C29.9986 28.7333 29.1053 28.6133 28.2253 28.4C27.3453 28.16 26.492 27.8267 25.6653 27.4C24.8653 26.9467 24.132 26.3867 23.4653 25.72C22.6386 24.92 21.9586 24 21.4253 22.96C20.892 21.8933 20.4786 20.7867 20.1853 19.64C19.892 18.4667 19.7053 17.2933 19.6253 16.12C19.5453 14.9467 19.5453 13.8267 19.6253 12.76C19.7053 11.7733 19.892 10.72 20.1853 9.6C20.5053 8.48 20.9586 7.4 21.5453 6.36C22.132 5.32 22.8386 4.38667 23.6653 3.56C24.5186 2.70667 25.5053 2.06667 26.6253 1.64ZM35.9853 18.76C36.3053 17.5067 36.4386 16.0933 36.3853 14.52C36.332 12.9467 36.0786 11.4667 35.6253 10.08C35.332 9.22667 34.9586 8.48 34.5053 7.84C34.0786 7.17333 33.5586 6.66667 32.9453 6.32C32.3586 5.97333 31.6653 5.8 30.8653 5.8C30.0653 5.8 29.172 6.04 28.1853 6.52C27.5986 6.81333 27.092 7.21333 26.6653 7.72C26.2653 8.22667 25.932 8.8 25.6653 9.44C25.4253 10.08 25.2253 10.7467 25.0653 11.44C24.932 12.1333 24.852 12.8 24.8253 13.44C24.772 14.1333 24.7586 14.8667 24.7853 15.64C24.812 16.3867 24.892 17.1467 25.0253 17.92C25.1853 18.6667 25.3986 19.3867 25.6653 20.08C25.932 20.7467 26.292 21.3467 26.7453 21.88C27.4386 22.68 28.2386 23.24 29.1453 23.56C30.0786 23.8533 30.9986 23.8933 31.9053 23.68C33.372 23.36 34.492 22.3867 35.2653 20.76C35.5853 20.1733 35.8253 19.5067 35.9853 18.76ZM66.0178 19.48C66.0178 20.28 65.9778 21.0933 65.8978 21.92C65.8178 22.72 65.6578 23.5067 65.4178 24.28C65.1778 25.0267 64.8178 25.7467 64.3378 26.44C63.8578 27.1067 63.2045 27.6933 62.3778 28.2C61.9778 28.4667 61.4978 28.6933 60.9378 28.88C60.4045 29.04 59.8311 29.1733 59.2178 29.28C58.6311 29.4133 58.0445 29.4933 57.4578 29.52C56.8711 29.5733 56.3245 29.5867 55.8178 29.56C53.4178 29.48 51.4711 28.9067 49.9778 27.84C48.5111 26.7467 47.3778 25.4 46.5778 23.8C45.8045 22.2 45.2978 20.4667 45.0578 18.6C44.8445 16.7067 44.8045 14.9067 44.9378 13.2C45.0178 12.1867 45.1911 11.0933 45.4578 9.92C45.7511 8.74667 46.1645 7.61333 46.6978 6.52C47.2578 5.42666 47.9378 4.44 48.7378 3.56C49.5645 2.68 50.5378 2.01333 51.6578 1.56C52.6978 1.13333 53.8311 0.866666 55.0578 0.759999C56.3111 0.626666 57.5378 0.666666 58.7378 0.88C59.9645 1.09333 61.0978 1.48 62.1378 2.04C63.2045 2.6 64.0445 3.34666 64.6578 4.28C65.0845 4.97333 65.4178 5.81333 65.6578 6.8C65.8978 7.78667 65.9378 8.73333 65.7778 9.64C65.6445 10.44 65.3645 11 64.9378 11.32C64.5111 11.6133 64.0445 11.7333 63.5378 11.68C63.0311 11.6 62.5378 11.3867 62.0578 11.04C61.6045 10.6667 61.2978 10.2 61.1378 9.64C60.9511 9.02667 60.7245 8.46667 60.4578 7.96C60.1911 7.42667 59.7778 6.98667 59.2178 6.64C58.5778 6.24 57.8978 6.01333 57.1778 5.96C56.4845 5.90667 55.8045 5.98667 55.1378 6.2C54.4978 6.41333 53.8845 6.74667 53.2978 7.2C52.7378 7.65333 52.2711 8.17333 51.8978 8.76C51.4445 9.42667 51.0978 10.16 50.8578 10.96C50.6178 11.7333 50.4445 12.5467 50.3378 13.4C50.2311 14.2267 50.1911 15.0667 50.2178 15.92C50.2711 16.7467 50.3778 17.5467 50.5378 18.32C50.8311 19.6267 51.2845 20.8533 51.8978 22C52.1378 22.4267 52.4578 22.8133 52.8578 23.16C53.2845 23.48 53.7511 23.7467 54.2578 23.96C54.7645 24.1467 55.2978 24.2667 55.8578 24.32C56.4178 24.3733 56.9511 24.3333 57.4578 24.2C58.1778 24.0133 58.7645 23.7733 59.2178 23.48C59.6711 23.16 60.0311 22.7867 60.2978 22.36C60.5645 21.9333 60.7378 21.4667 60.8178 20.96C60.9245 20.4533 60.9778 19.92 60.9778 19.36V19.32C60.6311 19.32 60.3245 19.32 60.0578 19.32C59.7911 19.2933 59.5911 19.28 59.4578 19.28C58.8711 19.28 58.2978 19.1733 57.7378 18.96C57.2578 18.8 56.8978 18.5467 56.6578 18.2C56.3911 17.9067 56.2578 17.5467 56.2578 17.12C56.2578 16.96 56.2578 16.8133 56.2578 16.68C56.2845 16.52 56.3111 16.36 56.3378 16.2C56.4178 15.9867 56.5911 15.72 56.8578 15.4C57.0178 15.2667 57.2711 15.16 57.6178 15.08C57.7778 15.0267 57.9378 14.9867 58.0978 14.96C58.2578 14.9067 58.4445 14.8667 58.6578 14.84C58.8178 14.8133 58.9911 14.8 59.1778 14.8C59.3645 14.8 59.5511 14.8 59.7378 14.8H63.3778C63.6711 14.7733 64.0045 14.8133 64.3778 14.92C64.7778 15 65.0845 15.1333 65.2978 15.32C65.3778 15.4267 65.4578 15.5333 65.5378 15.64C65.6178 15.7467 65.6845 15.8667 65.7378 16C65.8445 16.2933 65.9111 16.5867 65.9378 16.88C65.9645 17.04 65.9778 17.2133 65.9778 17.4C66.0045 17.56 66.0178 17.7067 66.0178 17.84V19.48ZM76.3128 1.64C78.0995 0.973332 79.7128 0.679998 81.1528 0.759999C82.6195 0.839999 83.9261 1.21333 85.0728 1.88C86.2195 2.52 87.1928 3.38667 87.9928 4.48C88.8195 5.57333 89.4861 6.8 89.9928 8.16C90.3928 9.17333 90.6995 10.24 90.9128 11.36C91.1261 12.48 91.2461 13.6 91.2728 14.72C91.3261 15.8133 91.2861 16.8933 91.1528 17.96C91.0461 19.0267 90.8595 20.0133 90.5928 20.92C90.4328 21.5333 90.2461 22.0933 90.0328 22.6C89.8195 23.1067 89.5661 23.6133 89.2728 24.12C88.6061 25.2667 87.7395 26.2 86.6728 26.92C85.6328 27.64 84.4861 28.1467 83.2328 28.44C82.3795 28.6533 81.4995 28.76 80.5928 28.76C79.6861 28.7333 78.7928 28.6133 77.9128 28.4C77.0328 28.16 76.1795 27.8267 75.3528 27.4C74.5528 26.9467 73.8195 26.3867 73.1528 25.72C72.3261 24.92 71.6461 24 71.1128 22.96C70.5795 21.8933 70.1661 20.7867 69.8728 19.64C69.5795 18.4667 69.3928 17.2933 69.3128 16.12C69.2328 14.9467 69.2328 13.8267 69.3128 12.76C69.3928 11.7733 69.5795 10.72 69.8728 9.6C70.1928 8.48 70.6461 7.4 71.2328 6.36C71.8195 5.32 72.5261 4.38667 73.3528 3.56C74.2061 2.70667 75.1928 2.06667 76.3128 1.64ZM85.6728 18.76C85.9928 17.5067 86.1261 16.0933 86.0728 14.52C86.0195 12.9467 85.7661 11.4667 85.3128 10.08C85.0195 9.22667 84.6461 8.48 84.1928 7.84C83.7661 7.17333 83.2461 6.66667 82.6328 6.32C82.0461 5.97333 81.3528 5.8 80.5528 5.8C79.7528 5.8 78.8595 6.04 77.8728 6.52C77.2861 6.81333 76.7795 7.21333 76.3528 7.72C75.9528 8.22667 75.6195 8.8 75.3528 9.44C75.1128 10.08 74.9128 10.7467 74.7528 11.44C74.6195 12.1333 74.5395 12.8 74.5128 13.44C74.4595 14.1333 74.4461 14.8667 74.4728 15.64C74.4995 16.3867 74.5795 17.1467 74.7128 17.92C74.8728 18.6667 75.0861 19.3867 75.3528 20.08C75.6195 20.7467 75.9795 21.3467 76.4328 21.88C77.1261 22.68 77.9261 23.24 78.8328 23.56C79.7661 23.8533 80.6861 23.8933 81.5928 23.68C83.0595 23.36 84.1795 22.3867 84.9528 20.76C85.2728 20.1733 85.5128 19.5067 85.6728 18.76Z" fill="black"/>
</svg>
